<svg width="113" height="139" version="1.1" xmlns="http://www.w3.org/2000/svg" desc="Created with imagetracer.js version 1.2.6" ><path fill="rgb(14,11,128)" stroke="rgb(14,11,128)" stroke-width="1" opacity="0.054901960784313725" d="M 25.5 10 L 27 10.5 L 23 13.5 L 22.5 15 L 22 13.5 L 25.5 10 Z " /><path fill="rgb(14,11,128)" stroke="rgb(14,11,128)" stroke-width="1" opacity="0.054901960784313725" d="M 31.5 10 L 35 12.5 L 32.5 11 L 31.5 10 Z " /><path fill="rgb(14,11,128)" stroke="rgb(14,11,128)" stroke-width="1" opacity="0.054901960784313725" d="M 21.5 16 L 25.5 23 L 29 24.5 L 27.5 25 L 22 20.5 L 21.5 16 Z " /><path fill="rgb(14,11,128)" stroke="rgb(14,11,128)" stroke-width="1" opacity="0.054901960784313725" d="M 48.5 17 Q 52.3 15.8 51 19.5 L 45 24.5 L 50 18.5 L 48.5 17 Z " /><path fill="rgb(14,11,128)" stroke="rgb(14,11,128)" stroke-width="1" opacity="0.054901960784313725" d="M 23.5 25 L 26 25.5 L 21 27 L 20.5 30 L 20 26 L 23.5 25 Z " /><path fill="rgb(14,11,128)" stroke="rgb(14,11,128)" stroke-width="1" opacity="0.054901960784313725" d="M 44.5 26 L 41.5 30 L 44.5 26 Z " /><path fill="rgb(14,11,128)" stroke="rgb(14,11,128)" stroke-width="1" opacity="0.054901960784313725" d="M 13.5 30 L 16 30.5 L 10.5 34 L 13.5 30 Z " /><path fill="rgb(14,11,128)" stroke="rgb(14,11,128)" stroke-width="1" opacity="0.054901960784313725" d="M 32.5 30 L 33 32 L 31 32.5 L 31 34.5 L 26.5 45 L 26 43.5 L 31 33.5 Q 28.3 31.7 32.5 30 Z " /><path fill="rgb(14,11,128)" stroke="rgb(14,11,128)" stroke-width="1" opacity="0.054901960784313725" d="M 17.5 31 L 20 31.5 L 20 33.5 L 19.5 35 L 17.5 31 Z " /><path fill="rgb(14,11,128)" stroke="rgb(14,11,128)" stroke-width="1" opacity="0.054901960784313725" d="M 40.5 31 L 38.5 34 L 40.5 31 Z " /><path fill="rgb(14,11,128)" stroke="rgb(14,11,128)" stroke-width="1" opacity="0.054901960784313725" d="M 27.5 33 L 26.5 35 L 21.5 38 L 20 37.5 L 19.5 39 L 19 37.5 L 27.5 33 Z " /><path fill="rgb(14,11,128)" stroke="rgb(14,11,128)" stroke-width="1" opacity="0.054901960784313725" d="M 46.5 33 L 55 33 L 55 36 L 52 37.5 L 52 60 L 66.5 60 L 66.5 61 L 52.5 61 L 51 59.5 L 51 37.5 L 53 34 L 46.5 34 L 46.5 33 Z " /><path fill="rgb(14,11,128)" stroke="rgb(14,11,128)" stroke-width="1" opacity="0.054901960784313725" d="M 44.5 34 L 42 37.5 L 41.5 40 L 41 37.5 L 44.5 34 Z " /><path fill="rgb(14,11,128)" stroke="rgb(14,11,128)" stroke-width="1" opacity="0.054901960784313725" d="M 37.5 35 L 36 37.5 L 34.5 40 L 35 38.5 L 37.5 35 Z " /><path fill="rgb(14,11,128)" stroke="rgb(14,11,128)" stroke-width="1" opacity="0.054901960784313725" d="M 10.5 38 L 15 41.5 L 10.5 45 L 10 43 L 14 41.5 L 10.5 38 Z " /><path fill="rgb(14,11,128)" stroke="rgb(14,11,128)" stroke-width="1" opacity="0.054901960784313725" d="M 33.5 41 L 33 42.5 L 30.5 48 L 30 46.5 L 33.5 41 Z " /><path fill="rgb(14,11,128)" stroke="rgb(14,11,128)" stroke-width="1" opacity="0.054901960784313725" d="M 25.5 46 L 26 48.5 L 25 48.5 L 25.5 46 Z " /><path fill="rgb(14,11,128)" stroke="rgb(14,11,128)" stroke-width="1" opacity="0.054901960784313725" d="M 24.5 51 L 25 54.5 L 24 54.5 L 24.5 51 Z " /><path fill="rgb(14,11,128)" stroke="rgb(14,11,128)" stroke-width="1" opacity="0.054901960784313725" d="M 20.5 53 L 21 55 L 19 54.5 L 20.5 53 Z " /><path fill="rgb(14,11,128)" stroke="rgb(14,11,128)" stroke-width="1" opacity="0.054901960784313725" d="M 32.5 53 L 41 53.5 L 32.5 54 L 32.5 53 Z " /><path fill="rgb(14,11,128)" stroke="rgb(14,11,128)" stroke-width="1" opacity="0.054901960784313725" d="M 30.5 54 L 30 55.5 L 29.5 57 L 29 55.5 L 30.5 54 Z " /><path fill="rgb(14,11,128)" stroke="rgb(14,11,128)" stroke-width="1" opacity="0.054901960784313725" d="M 40.5 55 L 39.5 57 L 40.5 55 Z " /><path fill="rgb(14,11,128)" stroke="rgb(14,11,128)" stroke-width="1" opacity="0.054901960784313725" d="M 27.5 56 Q 30.1 58.4 29 64.5 L 27 63.5 L 27.5 56 Z " /><path fill="rgb(14,11,128)" stroke="rgb(14,11,128)" stroke-width="1" opacity="0.054901960784313725" d="M 38.5 58 L 39 97.5 L 38.5 99 Q 40.8 99.8 40 97.5 L 41 97.5 L 38.5 102 L 37.5 100 L 36 100.5 L 38 97.5 L 38.5 58 Z " /><path fill="rgb(14,11,128)" stroke="rgb(14,11,128)" stroke-width="1" opacity="0.054901960784313725" d="M 71.5 59 L 74 59.5 L 72 60.5 L 75 63.5 L 75 125.5 L 74 125.5 L 74 63.5 L 72.5 63 Q 71.3 65.3 70 62.5 L 71.5 59 Z " /><path fill="rgb(14,11,128)" stroke="rgb(14,11,128)" stroke-width="1" opacity="0.054901960784313725" d="M 98.5 60 L 102 60.5 L 98.5 61 L 98.5 60 Z " /><path fill="rgb(14,11,128)" stroke="rgb(14,11,128)" stroke-width="1" opacity="0.054901960784313725" d="M 103.5 61 L 107 65.5 L 106 65.5 L 103.5 61 Z " /><path fill="rgb(14,11,128)" stroke="rgb(14,11,128)" stroke-width="1" opacity="0.054901960784313725" d="M 72.5 65 L 73 96.5 L 69.5 101 L 65.5 102 L 65.5 101 L 71 98.5 L 72 96.5 L 72.5 65 Z " /><path fill="rgb(14,11,128)" stroke="rgb(14,11,128)" stroke-width="1" opacity="0.054901960784313725" d="M 51 70 L 61.5 70 L 63 71.5 L 62.5 90 L 62 71 L 52 71 L 52 91 L 61 91.5 L 52.5 92 L 51 90.5 L 51 70 Z " /><path fill="rgb(14,11,128)" stroke="rgb(14,11,128)" stroke-width="1" opacity="0.054901960784313725" d="M 85.5 70 L 95.5 70 L 97 71.5 L 96.5 89 L 96 71 L 85.5 71 L 85.5 70 Z " /><path fill="rgb(14,11,128)" stroke="rgb(14,11,128)" stroke-width="1" opacity="0.054901960784313725" d="M 85.5 72 L 86 89.5 L 85 89.5 L 85.5 72 Z " /><path fill="rgb(14,11,128)" stroke="rgb(14,11,128)" stroke-width="1" opacity="0.054901960784313725" d="M 28.5 76 L 29 96.5 L 28 96.5 L 28.5 76 Z " /><path fill="rgb(14,11,128)" stroke="rgb(14,11,128)" stroke-width="1" opacity="0.054901960784313725" d="M 85.5 91 L 97 91.5 L 85.5 92 L 85.5 91 Z " /><path fill="rgb(14,11,128)" stroke="rgb(14,11,128)" stroke-width="1" opacity="0.054901960784313725" d="M 106.5 96 L 107 97.5 L 106 100 L 100.5 102 L 100.5 101 Q 105.5 101.5 106 97.5 L 106.5 96 Z " /><path fill="rgb(14,11,128)" stroke="rgb(14,11,128)" stroke-width="1" opacity="0.054901960784313725" d="M 27.5 98 L 26 100.5 Q 27 104.3 24 103 L 25.5 99 L 27.5 98 Z " /><path fill="rgb(14,11,128)" stroke="rgb(14,11,128)" stroke-width="1" opacity="0.054901960784313725" d="M 85.5 104 L 86 122.5 L 85 122.5 L 85.5 104 Z " /><path fill="rgb(14,11,128)" stroke="rgb(14,11,128)" stroke-width="1" opacity="0.054901960784313725" d="M 71.5 127 L 73 127.5 L 70.5 131 L 70 128.5 L 71.5 127 Z " /><path fill="rgb(14,11,128)" stroke="rgb(14,11,128)" stroke-width="1" opacity="0.054901960784313725" d="M 83.5 127 L 82.5 129 L 83.5 127 Z " /><path fill="rgb(16,54,157)" stroke="rgb(16,54,157)" stroke-width="1" opacity="0.9921568627450981" d="M 12.5 32 Q 18 31 19 34.5 Q 19.8 39.3 16.5 40 Q 11.8 40.8 11 37.5 Q 10 33 12.5 32 Z " /><path fill="rgb(16,54,157)" stroke="rgb(16,54,157)" stroke-width="1" opacity="0.9921568627450981" d="M 29.5 33 L 30 34.5 L 26 41.5 L 23 55.5 L 25 66.5 L 29 71.5 L 24 67.5 Q 20 62.1 21 53 L 19 53 Q 20.1 55.7 17.5 55 Q 15.7 58.8 14 55.5 L 11 44 L 29.5 33 Z " /><path fill="rgb(0,0,0)" stroke="rgb(0,0,0)" stroke-width="1" opacity="0" d="M 0 0 L 113 0 L 113 139 L 0 139 L 0 0 Z M 29 9 L 26 10 L 21 17 L 22 21 L 27 25 L 23 26 Q 18 25 20 31 L 20 33 L 14 30 Q 9 31 10 39 L 14 42 L 10 43 Q 9 51 13 55 L 12 54 Q 6 53 6 58 L 7 63 L 10 65 L 9 68 Q 15 74 25 76 L 28 77 L 28 98 L 26 99 L 24 103 Q 27 101 35 102 L 38 100 L 38 102 L 68 102 L 70 101 L 73 97 L 73 66 L 72 64 L 67 60 L 52 60 L 52 38 L 54 36 Q 57 37 55 33 L 45 34 L 41 38 L 41 53 L 31 54 L 29 58 L 28 58 Q 29 47 34 41 L 51 20 L 51 17 L 35 22 L 36 20 L 35 13 Q 33 9 29 9 Z M 72 59 L 70 61 L 74 63 L 74 127 L 72 127 L 70 131 L 83 129 L 86 123 L 86 105 L 85 102 L 103 102 L 106 100 L 107 98 L 107 65 L 102 60 L 75 60 L 72 59 Z " /><path fill="rgb(0,0,0)" stroke="rgb(0,0,0)" stroke-width="1" opacity="0" d="M 40.5 56 L 41 96.5 L 40 99 L 38 98.5 L 39 97.5 L 39 57.5 L 40.5 56 Z " /><path fill="rgb(0,0,0)" stroke="rgb(0,0,0)" stroke-width="1" opacity="0" d="M 52 71 L 62 71 L 62 91 L 52 91 L 52 71 Z " /><path fill="rgb(0,0,0)" stroke="rgb(0,0,0)" stroke-width="1" opacity="0" d="M 85.5 71 L 96 71 L 96 88.5 L 97 91 L 85 90.5 L 86 89.5 L 86 72.5 L 85.5 71 Z " /><path fill="rgb(52,144,217)" stroke="rgb(52,144,217)" stroke-width="1" opacity="0.6549019607843137" d="M 9.5 54 Q 14.5 53.5 15 57.5 L 15.5 59 L 18.5 55 L 21 55 L 21 61.5 Q 23.4 70.1 30.5 74 L 33 75.5 Q 33.8 77.8 31.5 77 L 18.5 74 L 9 67.5 L 10 64.5 L 7 63 L 6 57.5 L 9.5 54 Z " /><path fill="rgb(17,13,125)" stroke="rgb(17,13,125)" stroke-width="1" opacity="0.49411764705882355" d="M 27.5 10 L 31 10.5 L 27.5 11 L 27.5 10 Z " /><path fill="rgb(17,13,125)" stroke="rgb(17,13,125)" stroke-width="1" opacity="0.49411764705882355" d="M 25.5 11 L 23.5 14 L 25.5 11 Z " /><path fill="rgb(17,13,125)" stroke="rgb(17,13,125)" stroke-width="1" opacity="0.49411764705882355" d="M 32.5 11 L 35 14.5 L 34 14.5 L 32.5 11 Z " /><path fill="rgb(17,13,125)" stroke="rgb(17,13,125)" stroke-width="1" opacity="0.49411764705882355" d="M 22.5 15 L 23 17.5 L 22 17.5 L 22.5 15 Z " /><path fill="rgb(17,13,125)" stroke="rgb(17,13,125)" stroke-width="1" opacity="0.49411764705882355" d="M 47.5 18 L 50 18.5 L 38.5 22 L 38.5 21 L 47.5 18 Z " /><path fill="rgb(17,13,125)" stroke="rgb(17,13,125)" stroke-width="1" opacity="0.49411764705882355" d="M 23.5 19 L 25.5 22 L 30.5 23 L 34 20.5 L 34.5 19 L 35 20.5 Q 31.9 22.2 33.5 24 L 29.5 25 L 23 20.5 L 23.5 19 Z " /><path fill="rgb(17,13,125)" stroke="rgb(17,13,125)" stroke-width="1" opacity="0.49411764705882355" d="M 48.5 20 L 45 24.5 L 35.5 37 L 37 34.5 L 48.5 20 Z " /><path fill="rgb(17,13,125)" stroke="rgb(17,13,125)" stroke-width="1" opacity="0.49411764705882355" d="M 33 29 L 35 29.5 L 31.5 35 L 29.5 33 L 26.5 34 L 25 34.5 L 25.5 36 L 23.5 35 L 22.5 38 L 22 35.5 L 23.5 34 L 31.5 30 L 30 32.5 L 31.5 34 L 33 29 Z " /><path fill="rgb(17,13,125)" stroke="rgb(17,13,125)" stroke-width="1" opacity="0.49411764705882355" d="M 20.5 30 L 21 35.5 L 19 36.5 L 20.5 30 Z " /><path fill="rgb(17,13,125)" stroke="rgb(17,13,125)" stroke-width="1" opacity="0.49411764705882355" d="M 13.5 31 Q 18.3 30.3 19 33.5 L 16.5 32 Q 12.5 32.8 13.5 31 Z " /><path fill="rgb(17,13,125)" stroke="rgb(17,13,125)" stroke-width="1" opacity="0.49411764705882355" d="M 10.5 34 Q 10.3 38.3 13 39.5 L 10 37.5 L 10.5 34 Z " /><path fill="rgb(17,13,125)" stroke="rgb(17,13,125)" stroke-width="1" opacity="0.49411764705882355" d="M 45.5 34 L 52.5 34 L 53 35.5 L 51 36.5 L 51.5 35 Q 44 33.5 42.5 38 L 45.5 34 Z " /><path fill="rgb(17,13,125)" stroke="rgb(17,13,125)" stroke-width="1" opacity="0.49411764705882355" d="M 29.5 35 L 30.5 37 L 29.5 35 Z " /><path fill="rgb(17,13,125)" stroke="rgb(17,13,125)" stroke-width="1" opacity="0.49411764705882355" d="M 28.5 37 L 30 39.5 L 28.5 42 L 27 39.5 L 29 39.5 L 28.5 37 Z " /><path fill="rgb(17,13,125)" stroke="rgb(17,13,125)" stroke-width="1" opacity="0.49411764705882355" d="M 18.5 38 L 19 39.5 L 14.5 43 L 14.5 40 L 18.5 38 Z " /><path fill="rgb(17,13,125)" stroke="rgb(17,13,125)" stroke-width="1" opacity="0.49411764705882355" d="M 34.5 38 L 34 39.5 L 32.5 42 L 33 40.5 L 34.5 38 Z " /><path fill="rgb(17,13,125)" stroke="rgb(17,13,125)" stroke-width="1" opacity="0.49411764705882355" d="M 50.5 38 L 51 59.5 L 52 60.5 L 50 61 L 50.5 38 Z " /><path fill="rgb(17,13,125)" stroke="rgb(17,13,125)" stroke-width="1" opacity="0.49411764705882355" d="M 41.5 40 L 42 98.5 L 40.5 101 L 65 101.5 L 39 102 L 41 98.5 L 41 55.5 L 39 56.5 L 38.5 58 L 38 56.5 L 41 53.5 L 41.5 40 Z " /><path fill="rgb(17,13,125)" stroke="rgb(17,13,125)" stroke-width="1" opacity="0.49411764705882355" d="M 26.5 42 L 28 44.5 L 26.5 48 L 25 45.5 L 27 45 L 26.5 42 Z " /><path fill="rgb(17,13,125)" stroke="rgb(17,13,125)" stroke-width="1" opacity="0.49411764705882355" d="M 29.5 47 L 30 48.5 L 28.5 52 L 28 49.5 L 29.5 47 Z " /><path fill="rgb(17,13,125)" stroke="rgb(17,13,125)" stroke-width="1" opacity="0.49411764705882355" d="M 24.5 48 Q 26.8 48.8 26 52.5 L 25 52.5 L 24.5 48 Z " /><path fill="rgb(17,13,125)" stroke="rgb(17,13,125)" stroke-width="1" opacity="0.49411764705882355" d="M 27.5 53 L 28 55.5 L 27 55.5 L 27.5 53 Z " /><path fill="rgb(17,13,125)" stroke="rgb(17,13,125)" stroke-width="1" opacity="0.49411764705882355" d="M 31.5 54 L 33 54.5 L 30.5 56 L 31.5 54 Z " /><path fill="rgb(17,13,125)" stroke="rgb(17,13,125)" stroke-width="1" opacity="0.49411764705882355" d="M 17.5 55 L 16.5 57 L 17.5 55 Z " /><path fill="rgb(17,13,125)" stroke="rgb(17,13,125)" stroke-width="1" opacity="0.49411764705882355" d="M 23.5 55 Q 26.5 54.5 25 61.5 L 26.5 66 L 27.5 64 L 31 72.5 L 35 76.5 L 33 77 L 30.5 73 Q 28.3 73.8 29 71.5 L 25 66.5 L 23.5 55 Z " /><path fill="rgb(17,13,125)" stroke="rgb(17,13,125)" stroke-width="1" opacity="0.49411764705882355" d="M 29.5 57 L 30 60.5 L 29 60.5 L 29.5 57 Z " /><path fill="rgb(17,13,125)" stroke="rgb(17,13,125)" stroke-width="1" opacity="0.49411764705882355" d="M 72.5 60 L 98 60.5 L 74 61.5 L 74.5 63 L 72.5 60 Z " /><path fill="rgb(17,13,125)" stroke="rgb(17,13,125)" stroke-width="1" opacity="0.49411764705882355" d="M 64.5 61 Q 70.7 60.3 72 64.5 L 71.5 66 L 69.5 63 L 64.5 62 L 64.5 61 Z " /><path fill="rgb(17,13,125)" stroke="rgb(17,13,125)" stroke-width="1" opacity="0.49411764705882355" d="M 100.5 61 Q 105.5 60.5 106 64.5 L 102.5 62 Q 99.5 62.5 100.5 61 Z " /><path fill="rgb(17,13,125)" stroke="rgb(17,13,125)" stroke-width="1" opacity="0.49411764705882355" d="M 75.5 64 L 76 125.5 L 73.5 129 Q 80.8 130.3 83 126.5 L 83.5 125 L 84 126.5 Q 81 131.8 72 130 L 75 125.5 L 75.5 64 Z " /><path fill="rgb(17,13,125)" stroke="rgb(17,13,125)" stroke-width="1" opacity="0.49411764705882355" d="M 106.5 66 L 107 95.5 L 106 95.5 L 106.5 66 Z " /><path fill="rgb(17,13,125)" stroke="rgb(17,13,125)" stroke-width="1" opacity="0.49411764705882355" d="M 85.5 69 L 95.5 69 L 97 70.5 L 95.5 70 L 85 70 L 85 92 L 87 92.5 L 85.5 93 L 84 91.5 L 84 70.5 L 85.5 69 Z " /><path fill="rgb(17,13,125)" stroke="rgb(17,13,125)" stroke-width="1" opacity="0.49411764705882355" d="M 50.5 70 L 51 90.5 L 52 91.5 L 50 92 L 50.5 70 Z " /><path fill="rgb(17,13,125)" stroke="rgb(17,13,125)" stroke-width="1" opacity="0.49411764705882355" d="M 62.5 70 L 64 71.5 L 64 88.5 L 63 88.5 L 63 71.5 L 62.5 70 Z " /><path fill="rgb(17,13,125)" stroke="rgb(17,13,125)" stroke-width="1" opacity="0.49411764705882355" d="M 97.5 72 L 98 91.5 L 97 91.5 L 97.5 72 Z " /><path fill="rgb(17,13,125)" stroke="rgb(17,13,125)" stroke-width="1" opacity="0.49411764705882355" d="M 62.5 90 L 63 92 L 61 91.5 L 62.5 90 Z " /><path fill="rgb(17,13,125)" stroke="rgb(17,13,125)" stroke-width="1" opacity="0.49411764705882355" d="M 28.5 97 L 29 98.5 L 27.5 101 Q 34.2 102.2 36.5 99 L 35.5 101 L 26 102 L 28.5 97 Z " /><path fill="rgb(17,13,125)" stroke="rgb(17,13,125)" stroke-width="1" opacity="0.49411764705882355" d="M 70.5 98 L 69.5 100 L 70.5 98 Z " /><path fill="rgb(17,13,125)" stroke="rgb(17,13,125)" stroke-width="1" opacity="0.49411764705882355" d="M 103.5 99 L 102.5 101 L 101 100.5 L 103.5 99 Z " /><path fill="rgb(17,13,125)" stroke="rgb(17,13,125)" stroke-width="1" opacity="0.49411764705882355" d="M 85.5 101 L 100 101.5 L 85 102 L 84.5 124 L 84 102.5 L 85.5 101 Z " /><path fill="rgb(18,12,127)" stroke="rgb(18,12,127)" stroke-width="1" opacity="0.9921568627450981" d="M 26.5 11 Q 32.8 9.8 34 13.5 L 35 18.5 L 32.5 22 L 27.5 23 L 24 20.5 L 23 14.5 L 26.5 11 Z " /><path fill="rgb(18,12,127)" stroke="rgb(18,12,127)" stroke-width="1" opacity="0.9921568627450981" d="M 47.5 19 L 49 19.5 Q 35.9 31.9 28 49.5 L 26.5 66 Q 24 61.5 25 53.5 Q 27.5 39 35 29.5 L 33.5 29 L 21.5 36 L 21 28.5 L 22.5 27 L 47.5 19 Z " /><path fill="rgb(18,12,127)" stroke="rgb(18,12,127)" stroke-width="1" opacity="0.9921568627450981" d="M 45.5 35 L 52 35.5 L 50 38.5 L 50 61 L 63.5 61 L 71 64.5 L 72 66.5 L 72 95.5 L 68.5 100 L 65.5 101 L 40.5 101 L 42 98.5 L 42 38.5 L 45.5 35 Z M 50 70 L 50 92 L 63 92 L 64 89 L 64 72 L 63 70 L 50 70 Z " /><path fill="rgb(18,12,127)" stroke="rgb(18,12,127)" stroke-width="1" opacity="0.9921568627450981" d="M 33.5 54 L 40 54.5 L 38 56.5 L 38 95.5 L 35.5 100 L 27.5 101 L 29 98.5 L 29 77.5 Q 29.1 76.4 34.5 77 L 31 72.5 Q 27.8 69.2 29 61.5 L 31.5 55 L 33.5 54 Z " /><path fill="rgb(18,12,127)" stroke="rgb(18,12,127)" stroke-width="1" opacity="0.9921568627450981" d="M 74.5 61 L 99.5 61 L 106 65.5 L 106 96.5 L 105 99 L 100.5 101 L 85.5 101 L 84 102.5 L 84 124.5 L 81.5 128 L 73.5 129 L 76 125.5 L 76 64.5 L 74.5 61 Z M 86 69 L 84 71 L 84 92 L 86 93 L 88 92 L 98 92 L 98 73 L 97 71 L 96 69 L 86 69 Z " /></svg>